<svg width="237" height="23" viewBox="0 0 237 23" fill="none" xmlns="http://www.w3.org/2000/svg">
<path d="M15.7074 6.34943H11.9745C11.9063 5.86647 11.7671 5.43749 11.5568 5.06249C11.3466 4.68181 11.0767 4.35795 10.7472 4.0909C10.4176 3.82386 10.037 3.61931 9.60514 3.47727C9.179 3.33522 8.71593 3.2642 8.21593 3.2642C7.31252 3.2642 6.52559 3.48863 5.85514 3.93749C5.18468 4.38068 4.6648 5.0284 4.29548 5.88068C3.92616 6.72727 3.7415 7.75568 3.7415 8.9659C3.7415 10.2102 3.92616 11.2557 4.29548 12.1023C4.67048 12.9489 5.1932 13.5881 5.86366 14.0199C6.53411 14.4517 7.30968 14.6676 8.19036 14.6676C8.68468 14.6676 9.14207 14.6023 9.56252 14.4716C9.98866 14.3409 10.3665 14.1506 10.696 13.9006C11.0256 13.6449 11.2983 13.3352 11.5142 12.9716C11.7358 12.6079 11.8892 12.1932 11.9745 11.7273L15.7074 11.7443C15.6108 12.5454 15.3693 13.3182 14.983 14.0625C14.6023 14.8011 14.0881 15.4631 13.4404 16.0483C12.7983 16.6278 12.0313 17.0881 11.1392 17.429C10.2529 17.7642 9.25002 17.9318 8.1307 17.9318C6.57389 17.9318 5.18184 17.5795 3.95457 16.875C2.73298 16.1704 1.76707 15.1506 1.05684 13.8153C0.352295 12.4801 2.22027e-05 10.8636 2.22027e-05 8.9659C2.22027e-05 7.06249 0.357977 5.44318 1.07389 4.10795C1.7898 2.77272 2.76139 1.75568 3.98866 1.05681C5.21593 0.352267 6.59661 -6.19888e-06 8.1307 -6.19888e-06C9.14207 -6.19888e-06 10.0796 0.142039 10.9432 0.42613C11.8125 0.710221 12.5824 1.12499 13.2529 1.67045C13.9233 2.21022 14.4688 2.87215 14.8892 3.65624C15.3154 4.44033 15.5881 5.33806 15.7074 6.34943ZM24.2003 17.9489C22.8764 17.9489 21.7316 17.6676 20.7656 17.1051C19.8054 16.5369 19.0639 15.7472 18.5412 14.7358C18.0185 13.7187 17.7571 12.5398 17.7571 11.1989C17.7571 9.84659 18.0185 8.66477 18.5412 7.6534C19.0639 6.63636 19.8054 5.84658 20.7656 5.28408C21.7316 4.7159 22.8764 4.43181 24.2003 4.43181C25.5242 4.43181 26.6662 4.7159 27.6264 5.28408C28.5924 5.84658 29.3367 6.63636 29.8594 7.6534C30.3821 8.66477 30.6435 9.84659 30.6435 11.1989C30.6435 12.5398 30.3821 13.7187 29.8594 14.7358C29.3367 15.7472 28.5924 16.5369 27.6264 17.1051C26.6662 17.6676 25.5242 17.9489 24.2003 17.9489ZM24.2174 15.1364C24.8196 15.1364 25.3225 14.9659 25.7259 14.625C26.1293 14.2784 26.4333 13.8068 26.6378 13.2102C26.848 12.6136 26.9531 11.9347 26.9531 11.1733C26.9531 10.4119 26.848 9.73295 26.6378 9.13636C26.4333 8.53977 26.1293 8.06818 25.7259 7.72159C25.3225 7.37499 24.8196 7.2017 24.2174 7.2017C23.6094 7.2017 23.098 7.37499 22.6833 7.72159C22.2742 8.06818 21.9645 8.53977 21.7543 9.13636C21.5497 9.73295 21.4475 10.4119 21.4475 11.1733C21.4475 11.9347 21.5497 12.6136 21.7543 13.2102C21.9645 13.8068 22.2742 14.2784 22.6833 14.625C23.098 14.9659 23.6094 15.1364 24.2174 15.1364ZM33.0043 17.6932V4.60227H36.4645V6.91193H36.6179C36.8906 6.14488 37.3452 5.53977 37.9816 5.09658C38.6179 4.6534 39.3793 4.43181 40.2656 4.43181C41.1634 4.43181 41.9276 4.65624 42.5583 5.10511C43.1889 5.54829 43.6094 6.15056 43.8196 6.91193H43.956C44.223 6.16193 44.706 5.56249 45.4049 5.11363C46.1094 4.65909 46.9418 4.43181 47.902 4.43181C49.1236 4.43181 50.1151 4.82102 50.8764 5.59943C51.6435 6.37215 52.027 7.46874 52.027 8.8892V17.6932H48.4049V9.60511C48.4049 8.87784 48.2117 8.33238 47.8253 7.96874C47.4389 7.60511 46.956 7.42329 46.3764 7.42329C45.7174 7.42329 45.2031 7.63352 44.8338 8.05397C44.4645 8.46874 44.2799 9.01704 44.2799 9.69886V17.6932H40.76V9.5284C40.76 8.88636 40.5753 8.37499 40.206 7.99431C39.8424 7.61363 39.3622 7.42329 38.7656 7.42329C38.3622 7.42329 37.9986 7.52556 37.6747 7.73011C37.3566 7.92897 37.1037 8.21022 36.9162 8.57386C36.7287 8.93181 36.635 9.35227 36.635 9.83522V17.6932H33.0043ZM54.8949 22.6023V4.60227H58.4745V6.80113H58.6364C58.7955 6.44886 59.0256 6.0909 59.3267 5.72727C59.6335 5.35795 60.0313 5.05113 60.5199 4.80681C61.0142 4.55681 61.6279 4.43181 62.3608 4.43181C63.3154 4.43181 64.196 4.68181 65.0029 5.18181C65.8097 5.67613 66.4546 6.42329 66.9375 7.42329C67.4205 8.41761 67.662 9.66477 67.662 11.1648C67.662 12.625 67.4262 13.8579 66.9546 14.8636C66.4887 15.8636 65.8523 16.6222 65.0455 17.1392C64.2443 17.6506 63.3466 17.9062 62.3523 17.9062C61.6477 17.9062 61.0483 17.7898 60.554 17.5568C60.0654 17.3239 59.6648 17.0312 59.3523 16.679C59.0398 16.321 58.8012 15.9602 58.6364 15.5966H58.5256V22.6023H54.8949ZM58.4489 11.1477C58.4489 11.9261 58.5568 12.6051 58.7727 13.1847C58.9887 13.7642 59.3012 14.2159 59.7102 14.5398C60.1193 14.8579 60.6165 15.017 61.2017 15.017C61.7926 15.017 62.2926 14.8551 62.7017 14.5312C63.1108 14.2017 63.4205 13.7472 63.6307 13.1676C63.8466 12.5824 63.9546 11.9091 63.9546 11.1477C63.9546 10.392 63.8495 9.72727 63.6392 9.1534C63.429 8.57954 63.1193 8.13068 62.7102 7.80681C62.3012 7.48295 61.7983 7.32102 61.2017 7.32102C60.6108 7.32102 60.1108 7.47727 59.7017 7.78977C59.2983 8.10227 58.9887 8.54545 58.7727 9.11931C58.5568 9.69318 58.4489 10.3693 58.4489 11.1477ZM70.0824 17.6932V4.60227H73.6023V6.88636H73.7387C73.9773 6.07386 74.3779 5.46022 74.9404 5.04545C75.5029 4.62499 76.1506 4.41477 76.8835 4.41477C77.0654 4.41477 77.2614 4.42613 77.4716 4.44886C77.6818 4.47159 77.8665 4.50284 78.0256 4.54261V7.7642C77.8551 7.71306 77.6193 7.66761 77.3182 7.62784C77.0171 7.58806 76.7415 7.56818 76.4915 7.56818C75.9574 7.56818 75.4801 7.68465 75.0597 7.91761C74.6449 8.14488 74.3154 8.46306 74.071 8.87215C73.8324 9.28124 73.7131 9.75284 73.7131 10.2869V17.6932H70.0824ZM83.2607 17.9403C82.4254 17.9403 81.6811 17.7954 81.0277 17.5057C80.3743 17.2102 79.8573 16.7756 79.4766 16.2017C79.1016 15.6222 78.9141 14.9006 78.9141 14.0369C78.9141 13.3097 79.0476 12.6989 79.3147 12.2045C79.5817 11.7102 79.9453 11.3125 80.4056 11.0114C80.8658 10.7102 81.3885 10.4829 81.9737 10.3295C82.5647 10.1761 83.184 10.0682 83.8317 10.0057C84.5931 9.92613 85.2067 9.85227 85.6726 9.78409C86.1385 9.71022 86.4766 9.60227 86.6868 9.46022C86.897 9.31818 87.0022 9.10795 87.0022 8.82954V8.7784C87.0022 8.23863 86.8317 7.82102 86.4908 7.52556C86.1556 7.23011 85.6783 7.08238 85.059 7.08238C84.4056 7.08238 83.8857 7.22727 83.4993 7.51704C83.1129 7.80113 82.8573 8.15909 82.7323 8.5909L79.3743 8.31818C79.5448 7.52272 79.88 6.83522 80.38 6.25568C80.88 5.67045 81.5249 5.22158 82.3147 4.90908C83.1101 4.5909 84.0306 4.43181 85.076 4.43181C85.8033 4.43181 86.4993 4.51704 87.1641 4.68749C87.8345 4.85795 88.4283 5.12215 88.9453 5.48011C89.4681 5.83806 89.88 6.29829 90.1811 6.86079C90.4823 7.41761 90.6328 8.08522 90.6328 8.86363V17.6932H87.1897V15.8778H87.0874C86.8772 16.2869 86.5959 16.6477 86.2436 16.9602C85.8914 17.267 85.4681 17.5085 84.9737 17.6847C84.4794 17.8551 83.9084 17.9403 83.2607 17.9403ZM84.3004 15.4347C84.8345 15.4347 85.3061 15.3295 85.7152 15.1193C86.1243 14.9034 86.4453 14.6136 86.6783 14.25C86.9112 13.8864 87.0277 13.4744 87.0277 13.0142V11.625C86.9141 11.6989 86.7578 11.767 86.559 11.8295C86.3658 11.8864 86.147 11.9403 85.9027 11.9915C85.6584 12.0369 85.4141 12.0795 85.1698 12.1193C84.9254 12.1534 84.7039 12.1847 84.505 12.2131C84.0789 12.2756 83.7067 12.375 83.3885 12.5114C83.0703 12.6477 82.8232 12.8324 82.647 13.0653C82.4709 13.2926 82.3828 13.5767 82.3828 13.9176C82.3828 14.4119 82.5618 14.7898 82.9198 15.0511C83.2834 15.3068 83.7436 15.4347 84.3004 15.4347ZM104.342 8.33522L101.018 8.53977C100.961 8.25568 100.839 7.99999 100.651 7.77272C100.464 7.53977 100.217 7.35511 99.9098 7.21874C99.6087 7.0767 99.2479 7.00568 98.8274 7.00568C98.2649 7.00568 97.7905 7.12499 97.4041 7.36363C97.0178 7.59658 96.8246 7.90908 96.8246 8.30113C96.8246 8.61363 96.9496 8.87784 97.1996 9.09374C97.4496 9.30965 97.8786 9.48295 98.4865 9.61363L100.856 10.0909C102.129 10.3523 103.077 10.7727 103.702 11.3523C104.327 11.9318 104.64 12.6932 104.64 13.6364C104.64 14.4943 104.387 15.2472 103.881 15.8949C103.381 16.5426 102.694 17.0483 101.819 17.4119C100.95 17.7699 99.9468 17.9489 98.8104 17.9489C97.0774 17.9489 95.6968 17.5881 94.6683 16.8665C93.6456 16.1392 93.0462 15.1506 92.8701 13.9006L96.4411 13.7131C96.549 14.2415 96.8104 14.6449 97.2252 14.9233C97.6399 15.196 98.1712 15.3324 98.8189 15.3324C99.4553 15.3324 99.9666 15.2102 100.353 14.9659C100.745 14.7159 100.944 14.3949 100.95 14.0028C100.944 13.6733 100.805 13.4034 100.532 13.1932C100.259 12.9773 99.8388 12.8125 99.2706 12.6989L97.0036 12.2472C95.7252 11.9915 94.7735 11.5483 94.1485 10.9176C93.5291 10.2869 93.2195 9.48295 93.2195 8.50568C93.2195 7.66477 93.4468 6.94033 93.9013 6.33238C94.3615 5.72443 95.0064 5.25568 95.836 4.92613C96.6712 4.59659 97.6485 4.43181 98.7678 4.43181C100.421 4.43181 101.722 4.78124 102.671 5.48011C103.626 6.17897 104.183 7.13068 104.342 8.33522ZM117.305 17.9062C116.31 17.9062 115.41 17.6506 114.603 17.1392C113.802 16.6222 113.166 15.8636 112.694 14.8636C112.228 13.8579 111.995 12.625 111.995 11.1648C111.995 9.66477 112.237 8.41761 112.719 7.42329C113.202 6.42329 113.844 5.67613 114.646 5.18181C115.452 4.68181 116.336 4.43181 117.296 4.43181C118.029 4.43181 118.64 4.55681 119.129 4.80681C119.623 5.05113 120.021 5.35795 120.322 5.72727C120.629 6.0909 120.862 6.44886 121.021 6.80113H121.131V0.23863H124.754V17.6932H121.174V15.5966H121.021C120.85 15.9602 120.609 16.321 120.296 16.679C119.989 17.0312 119.589 17.3239 119.094 17.5568C118.606 17.7898 118.009 17.9062 117.305 17.9062ZM118.455 15.017C119.041 15.017 119.535 14.8579 119.938 14.5398C120.347 14.2159 120.66 13.7642 120.876 13.1847C121.097 12.6051 121.208 11.9261 121.208 11.1477C121.208 10.3693 121.1 9.69318 120.884 9.11931C120.668 8.54545 120.356 8.10227 119.947 7.78977C119.538 7.47727 119.041 7.32102 118.455 7.32102C117.859 7.32102 117.356 7.48295 116.947 7.80681C116.538 8.13068 116.228 8.57954 116.018 9.1534C115.808 9.72727 115.702 10.392 115.702 11.1477C115.702 11.9091 115.808 12.5824 116.018 13.1676C116.234 13.7472 116.543 14.2017 116.947 14.5312C117.356 14.8551 117.859 15.017 118.455 15.017ZM131.472 17.9403C130.636 17.9403 129.892 17.7954 129.239 17.5057C128.585 17.2102 128.068 16.7756 127.688 16.2017C127.313 15.6222 127.125 14.9006 127.125 14.0369C127.125 13.3097 127.259 12.6989 127.526 12.2045C127.793 11.7102 128.156 11.3125 128.616 11.0114C129.077 10.7102 129.599 10.4829 130.185 10.3295C130.776 10.1761 131.395 10.0682 132.043 10.0057C132.804 9.92613 133.418 9.85227 133.884 9.78409C134.349 9.71022 134.688 9.60227 134.898 9.46022C135.108 9.31818 135.213 9.10795 135.213 8.82954V8.7784C135.213 8.23863 135.043 7.82102 134.702 7.52556C134.366 7.23011 133.889 7.08238 133.27 7.08238C132.616 7.08238 132.097 7.22727 131.71 7.51704C131.324 7.80113 131.068 8.15909 130.943 8.5909L127.585 8.31818C127.756 7.52272 128.091 6.83522 128.591 6.25568C129.091 5.67045 129.736 5.22158 130.526 4.90908C131.321 4.5909 132.241 4.43181 133.287 4.43181C134.014 4.43181 134.71 4.51704 135.375 4.68749C136.045 4.85795 136.639 5.12215 137.156 5.48011C137.679 5.83806 138.091 6.29829 138.392 6.86079C138.693 7.41761 138.844 8.08522 138.844 8.86363V17.6932H135.401V15.8778H135.298C135.088 16.2869 134.807 16.6477 134.455 16.9602C134.102 17.267 133.679 17.5085 133.185 17.6847C132.69 17.8551 132.119 17.9403 131.472 17.9403ZM132.511 15.4347C133.045 15.4347 133.517 15.3295 133.926 15.1193C134.335 14.9034 134.656 14.6136 134.889 14.25C135.122 13.8864 135.239 13.4744 135.239 13.0142V11.625C135.125 11.6989 134.969 11.767 134.77 11.8295C134.577 11.8864 134.358 11.9403 134.114 11.9915C133.869 12.0369 133.625 12.0795 133.381 12.1193C133.136 12.1534 132.915 12.1847 132.716 12.2131C132.29 12.2756 131.918 12.375 131.599 12.5114C131.281 12.6477 131.034 12.8324 130.858 13.0653C130.682 13.2926 130.594 13.5767 130.594 13.9176C130.594 14.4119 130.773 14.7898 131.131 15.0511C131.494 15.3068 131.955 15.4347 132.511 15.4347ZM158.107 8.33522L154.783 8.53977C154.727 8.25568 154.604 7.99999 154.417 7.77272C154.229 7.53977 153.982 7.35511 153.675 7.21874C153.374 7.0767 153.014 7.00568 152.593 7.00568C152.031 7.00568 151.556 7.12499 151.17 7.36363C150.783 7.59658 150.59 7.90908 150.59 8.30113C150.59 8.61363 150.715 8.87784 150.965 9.09374C151.215 9.30965 151.644 9.48295 152.252 9.61363L154.621 10.0909C155.894 10.3523 156.843 10.7727 157.468 11.3523C158.093 11.9318 158.406 12.6932 158.406 13.6364C158.406 14.4943 158.153 15.2472 157.647 15.8949C157.147 16.5426 156.46 17.0483 155.585 17.4119C154.715 17.7699 153.712 17.9489 152.576 17.9489C150.843 17.9489 149.462 17.5881 148.434 16.8665C147.411 16.1392 146.812 15.1506 146.636 13.9006L150.207 13.7131C150.315 14.2415 150.576 14.6449 150.991 14.9233C151.406 15.196 151.937 15.3324 152.585 15.3324C153.221 15.3324 153.732 15.2102 154.119 14.9659C154.511 14.7159 154.71 14.3949 154.715 14.0028C154.71 13.6733 154.57 13.4034 154.298 13.1932C154.025 12.9773 153.604 12.8125 153.036 12.6989L150.769 12.2472C149.491 11.9915 148.539 11.5483 147.914 10.9176C147.295 10.2869 146.985 9.48295 146.985 8.50568C146.985 7.66477 147.212 6.94033 147.667 6.33238C148.127 5.72443 148.772 5.25568 149.602 4.92613C150.437 4.59659 151.414 4.43181 152.533 4.43181C154.187 4.43181 155.488 4.78124 156.437 5.48011C157.391 6.17897 157.948 7.13068 158.107 8.33522ZM166.658 17.9489C165.311 17.9489 164.152 17.6761 163.18 17.1307C162.215 16.5795 161.47 15.8011 160.947 14.7954C160.425 13.7841 160.163 12.5881 160.163 11.2074C160.163 9.86079 160.425 8.67897 160.947 7.66193C161.47 6.64488 162.206 5.85227 163.155 5.28408C164.109 4.7159 165.229 4.43181 166.513 4.43181C167.376 4.43181 168.18 4.57102 168.925 4.84943C169.675 5.12215 170.328 5.53409 170.885 6.08522C171.447 6.63636 171.885 7.32954 172.197 8.16477C172.51 8.99431 172.666 9.9659 172.666 11.0795V12.0767H161.612V9.8267H169.249C169.249 9.30397 169.135 8.8409 168.908 8.43749C168.68 8.03409 168.365 7.71874 167.962 7.49147C167.564 7.25852 167.101 7.14204 166.572 7.14204C166.021 7.14204 165.533 7.26988 165.107 7.52556C164.686 7.77556 164.357 8.11363 164.118 8.53977C163.879 8.96022 163.757 9.42897 163.751 9.94602V12.0852C163.751 12.7329 163.871 13.2926 164.109 13.7642C164.354 14.2358 164.697 14.5994 165.141 14.8551C165.584 15.1108 166.109 15.2386 166.717 15.2386C167.121 15.2386 167.49 15.1818 167.825 15.0682C168.161 14.9545 168.447 14.7841 168.686 14.5568C168.925 14.3295 169.107 14.0511 169.232 13.7216L172.59 13.9432C172.419 14.75 172.07 15.4545 171.541 16.0568C171.018 16.6534 170.342 17.1193 169.513 17.4545C168.689 17.7841 167.737 17.9489 166.658 17.9489ZM175.036 17.6932V4.60227H178.496V6.91193H178.649C178.922 6.14488 179.376 5.53977 180.013 5.09658C180.649 4.6534 181.411 4.43181 182.297 4.43181C183.195 4.43181 183.959 4.65624 184.59 5.10511C185.22 5.54829 185.641 6.15056 185.851 6.91193H185.987C186.254 6.16193 186.737 5.56249 187.436 5.11363C188.141 4.65909 188.973 4.43181 189.933 4.43181C191.155 4.43181 192.146 4.82102 192.908 5.59943C193.675 6.37215 194.058 7.46874 194.058 8.8892V17.6932H190.436V9.60511C190.436 8.87784 190.243 8.33238 189.857 7.96874C189.47 7.60511 188.987 7.42329 188.408 7.42329C187.749 7.42329 187.234 7.63352 186.865 8.05397C186.496 8.46874 186.311 9.01704 186.311 9.69886V17.6932H182.791V9.5284C182.791 8.88636 182.607 8.37499 182.237 7.99431C181.874 7.61363 181.393 7.42329 180.797 7.42329C180.393 7.42329 180.03 7.52556 179.706 7.73011C179.388 7.92897 179.135 8.21022 178.947 8.57386C178.76 8.93181 178.666 9.35227 178.666 9.83522V17.6932H175.036ZM200.659 17.9403C199.824 17.9403 199.08 17.7954 198.426 17.5057C197.773 17.2102 197.256 16.7756 196.875 16.2017C196.5 15.6222 196.313 14.9006 196.313 14.0369C196.313 13.3097 196.446 12.6989 196.713 12.2045C196.98 11.7102 197.344 11.3125 197.804 11.0114C198.264 10.7102 198.787 10.4829 199.372 10.3295C199.963 10.1761 200.582 10.0682 201.23 10.0057C201.991 9.92613 202.605 9.85227 203.071 9.78409C203.537 9.71022 203.875 9.60227 204.085 9.46022C204.295 9.31818 204.401 9.10795 204.401 8.82954V8.7784C204.401 8.23863 204.23 7.82102 203.889 7.52556C203.554 7.23011 203.077 7.08238 202.457 7.08238C201.804 7.08238 201.284 7.22727 200.898 7.51704C200.511 7.80113 200.256 8.15909 200.131 8.5909L196.773 8.31818C196.943 7.52272 197.278 6.83522 197.778 6.25568C198.278 5.67045 198.923 5.22158 199.713 4.90908C200.509 4.5909 201.429 4.43181 202.474 4.43181C203.202 4.43181 203.898 4.51704 204.563 4.68749C205.233 4.85795 205.827 5.12215 206.344 5.48011C206.866 5.83806 207.278 6.29829 207.58 6.86079C207.881 7.41761 208.031 8.08522 208.031 8.86363V17.6932H204.588V15.8778H204.486C204.276 16.2869 203.994 16.6477 203.642 16.9602C203.29 17.267 202.866 17.5085 202.372 17.6847C201.878 17.8551 201.307 17.9403 200.659 17.9403ZM201.699 15.4347C202.233 15.4347 202.705 15.3295 203.114 15.1193C203.523 14.9034 203.844 14.6136 204.077 14.25C204.31 13.8864 204.426 13.4744 204.426 13.0142V11.625C204.313 11.6989 204.156 11.767 203.957 11.8295C203.764 11.8864 203.545 11.9403 203.301 11.9915C203.057 12.0369 202.813 12.0795 202.568 12.1193C202.324 12.1534 202.102 12.1847 201.903 12.2131C201.477 12.2756 201.105 12.375 200.787 12.5114C200.469 12.6477 200.222 12.8324 200.045 13.0653C199.869 13.2926 199.781 13.5767 199.781 13.9176C199.781 14.4119 199.96 14.7898 200.318 15.0511C200.682 15.3068 201.142 15.4347 201.699 15.4347ZM214.479 10.125V17.6932H210.848V4.60227H214.308V6.91193H214.462C214.751 6.15056 215.237 5.54829 215.919 5.10511C216.601 4.65624 217.428 4.43181 218.399 4.43181C219.308 4.43181 220.101 4.63068 220.777 5.0284C221.453 5.42613 221.979 5.99431 222.354 6.73295C222.729 7.4659 222.916 8.3409 222.916 9.35795V17.6932H219.286V10.0057C219.291 9.20454 219.087 8.57954 218.672 8.13068C218.257 7.67613 217.686 7.44886 216.959 7.44886C216.47 7.44886 216.038 7.55397 215.663 7.7642C215.294 7.97443 215.004 8.28124 214.794 8.68465C214.59 9.08238 214.484 9.56249 214.479 10.125ZM229.511 17.9403C228.675 17.9403 227.931 17.7954 227.278 17.5057C226.624 17.2102 226.107 16.7756 225.727 16.2017C225.352 15.6222 225.164 14.9006 225.164 14.0369C225.164 13.3097 225.298 12.6989 225.565 12.2045C225.832 11.7102 226.195 11.3125 226.656 11.0114C227.116 10.7102 227.639 10.4829 228.224 10.3295C228.815 10.1761 229.434 10.0682 230.082 10.0057C230.843 9.92613 231.457 9.85227 231.923 9.78409C232.389 9.71022 232.727 9.60227 232.937 9.46022C233.147 9.31818 233.252 9.10795 233.252 8.82954V8.7784C233.252 8.23863 233.082 7.82102 232.741 7.52556C232.406 7.23011 231.928 7.08238 231.309 7.08238C230.656 7.08238 230.136 7.22727 229.749 7.51704C229.363 7.80113 229.107 8.15909 228.982 8.5909L225.624 8.31818C225.795 7.52272 226.13 6.83522 226.63 6.25568C227.13 5.67045 227.775 5.22158 228.565 4.90908C229.36 4.5909 230.281 4.43181 231.326 4.43181C232.053 4.43181 232.749 4.51704 233.414 4.68749C234.085 4.85795 234.678 5.12215 235.195 5.48011C235.718 5.83806 236.13 6.29829 236.431 6.86079C236.732 7.41761 236.883 8.08522 236.883 8.86363V17.6932H233.44V15.8778H233.337C233.127 16.2869 232.846 16.6477 232.494 16.9602C232.141 17.267 231.718 17.5085 231.224 17.6847C230.729 17.8551 230.158 17.9403 229.511 17.9403ZM230.55 15.4347C231.085 15.4347 231.556 15.3295 231.965 15.1193C232.374 14.9034 232.695 14.6136 232.928 14.25C233.161 13.8864 233.278 13.4744 233.278 13.0142V11.625C233.164 11.6989 233.008 11.767 232.809 11.8295C232.616 11.8864 232.397 11.9403 232.153 11.9915C231.908 12.0369 231.664 12.0795 231.42 12.1193C231.175 12.1534 230.954 12.1847 230.755 12.2131C230.329 12.2756 229.957 12.375 229.639 12.5114C229.32 12.6477 229.073 12.8324 228.897 13.0653C228.721 13.2926 228.633 13.5767 228.633 13.9176C228.633 14.4119 228.812 14.7898 229.17 15.0511C229.533 15.3068 229.994 15.4347 230.55 15.4347Z" fill="#111827"/>
</svg>
